<svg width="500" height="492" viewBox="0 0 500 492" fill="none" xmlns="http://www.w3.org/2000/svg">
<path fill-rule="evenodd" clip-rule="evenodd" d="M332.799 45.558V378.135C332.799 411.787 332.097 445.447 314.103 462.508C310.362 465.778 305.919 468.115 300.081 469.99C289.329 473.26 278.577 476.069 267.132 479.81C255.677 483.32 245.627 486.821 233.942 489.389C220.391 492.428 210.341 492.899 193.04 481.204C160.321 449.188 130.642 419.5 97.4528 387.955C80.6226 372.057 65.1964 355.236 48.3754 339.579C33.6512 326.028 20.3311 311.064 5.37602 297.282C4.44306 296.349 3.51012 295.416 2.33699 294.243C1.63496 293.541 0 292.377 0 290.973C17.5323 287.934 35.9882 284.433 54.2225 280.923C56.5595 280.452 60.0697 279.519 61.7047 279.519C63.5706 279.75 66.6097 283.491 68.4848 285.366C131.584 344.032 197.03 405.496 259.197 463.22C260.832 459.95 261.303 456.209 262.236 452.467C263.169 448.726 264.804 444.754 264.342 440.782C264.342 439.609 263.409 439.147 262.005 437.974C225.776 404.083 188.615 370.903 152.396 337.242C131.132 317.373 109.156 297.975 87.6613 277.874C86.9593 277.172 85.5553 276.701 85.5553 275.307C104.953 271.796 124.121 268.295 143.279 264.554C184.643 299.841 225.545 336.54 266.448 371.595V352.899C266.448 350.793 266.919 348.225 266.448 346.59C265.977 344.955 262.245 342.618 260.37 340.983C233.028 317.844 206.147 294.243 178.805 271.104C175.766 268.295 172.727 265.728 169.457 262.919C168.755 262.448 166.889 261.515 167.351 260.111C184.643 257.072 202.637 253.571 219.006 250.532C219.477 250.532 220.179 250.301 220.641 250.301C222.276 250.532 224.844 253.34 226.488 254.744C239.577 265.728 253.599 276.711 266.457 287.001V0.702039C266.457 0.23094 266.457 0 266.688 0C288.894 14.9551 310.861 30.3813 332.827 45.5765L332.799 45.558Z" fill="#DD1A17"/>
<path fill-rule="evenodd" clip-rule="evenodd" d="M331.948 458.515C335.458 456.649 338.488 454.072 341.065 451.033C345.97 445.426 349.712 437.482 351.818 429.067C355.79 411.775 356.261 390.973 356.261 369.699V62.598C356.261 62.3671 356.492 62.127 356.732 62.127C375.428 74.5141 394.595 88.3052 413.522 101.394C414.926 102.327 417.032 103.26 417.263 103.962C417.735 105.597 417.263 109.338 417.263 112.377V358.014C417.263 374.142 417.032 390.502 414.455 404.524C412.589 413.641 409.55 422.287 405.338 428.827C404.165 430.693 403.232 432.337 401.828 433.972C400.664 435.376 399.02 436.309 397.385 437.944C391.778 443.089 381.959 445.426 373.313 447.994C360.223 451.966 346.432 456.178 333.343 460.15C331.006 460.621 328.669 461.323 326.332 461.785L331.939 458.515H331.948Z" fill="#DD1A17"/>
<path fill-rule="evenodd" clip-rule="evenodd" d="M416.961 434.204C420.231 433.271 423.039 431.165 425.376 428.828C439.167 415.97 443.37 391.667 443.37 365.959C443.37 260.553 443.841 226.662 443.601 121.025C443.601 120.794 443.601 120.554 443.832 120.554C453.18 126.161 462.297 133.172 471.876 139.721C478.656 144.395 485.667 149.069 492.909 153.974C494.775 155.378 499.218 157.484 499.69 159.119C500.392 161.687 499.69 169.4 499.69 172.91V304.726C499.69 322.951 500.161 341.656 499.219 359.41C498.747 367.825 498.045 376.702 496.179 384.184C494.073 391.666 492.207 398.909 488.466 404.285C486.36 407.324 484.494 409.892 482.157 412.229C479.589 414.566 477.012 416.432 473.742 418.076C467.433 421.115 459.489 422.981 451.776 425.087L416.961 434.204Z" fill="#DD1A17"/>
</svg>
